<?xml version="1.0" standalone="no"?>
<!DOCTYPE svg PUBLIC "-//W3C//DTD SVG 20010904//EN"
 "http://www.w3.org/TR/2001/REC-SVG-20010904/DTD/svg10.dtd">
<svg version="1.0" xmlns="http://www.w3.org/2000/svg"
 width="80.000000pt" height="80.000000pt" viewBox="0 0 80.000000 80.000000"
 preserveAspectRatio="xMidYMid meet">

<g transform="translate(0.000000,80.000000) scale(0.100000,-0.100000)"
fill="#000000" stroke="none">
<path d="M332 789 c-159 -27 -295 -166 -321 -328 -42 -263 192 -498 451 -452
171 30 297 155 329 325 48 264 -189 500 -459 455z m196 -187 c6 -9 12 -28 12
-44 0 -33 -39 -63 -72 -55 -29 8 -138 -78 -138 -110 0 -14 19 -36 57 -67 46
-36 62 -44 85 -39 55 11 90 -56 51 -99 -34 -38 -103 -11 -103 41 -1 36 -98
107 -142 102 -37 -3 -68 23 -68 57 0 37 27 62 67 62 48 0 142 74 142 112 2 55
75 83 109 40z"/>
</g>
</svg>
